<svg xmlns="http://www.w3.org/2000/svg" viewBox="0 0 512 512" width="512" height="512">
  <defs>
    <linearGradient id="g" x1="0" y1="0" x2="1" y2="1">
      <stop offset="0" stop-color="#58a6ff"/>
      <stop offset="1" stop-color="#3fb950"/>
    </linearGradient>
    <mask id="safe">
      <rect x="64" y="64" width="384" height="384" rx="96" fill="#fff"/>
    </mask>
  </defs>
  <rect width="512" height="512" fill="#0d1117"/>
  <g mask="url(#safe)">
    <rect width="512" height="512" fill="#161b22"/>
    <rect x="64" y="64" width="384" height="384" rx="96" fill="none" stroke="url(#g)" stroke-width="8"/>
    <!-- MD mark -->
    <text x="160" y="270" font-family="-apple-system,Segoe UI,Helvetica,Arial,sans-serif"
          font-size="150" font-weight="700" fill="url(#g)">MD</text>
    <!-- comment speech bubble -->
    <path d="M300 300 h110 a24 24 0 0 1 24 24 v40 a24 24 0 0 1 -24 24 h-70 l-30 28 v-28 h-10 a24 24 0 0 1 -24 -24 v-40 a24 24 0 0 1 24 -24 z"
          fill="#e6edf3"/>
    <circle cx="332" cy="346" r="9" fill="#0d1117"/>
    <circle cx="362" cy="346" r="9" fill="#0d1117"/>
    <circle cx="392" cy="346" r="9" fill="#0d1117"/>
  </g>
</svg>
