<svg xmlns="http://www.w3.org/2000/svg" viewBox="0 0 440 280" width="440" height="280">
  <defs>
    <linearGradient id="bg" x1="0" y1="0" x2="1" y2="1">
      <stop offset="0" stop-color="#0d1117" />
      <stop offset="1" stop-color="#161b22" />
    </linearGradient>
    <linearGradient id="brand" x1="0" y1="0" x2="1" y2="1">
      <stop offset="0" stop-color="#58a6ff" />
      <stop offset="1" stop-color="#3fb950" />
    </linearGradient>
  </defs>

  <rect width="440" height="280" fill="url(#bg)" />

  <!-- brand icon, centered top -->
  <rect x="150" y="28" width="140" height="140" rx="32" fill="url(#brand)" />
  <g transform="translate(150,28) scale(0.2734375)">
    <rect x="92" y="100" width="220" height="308" rx="34" fill="#ffffff" />
    <rect x="124" y="150" width="156" height="26" rx="13" fill="#58a6ff" />
    <rect x="124" y="198" width="180" height="22" rx="11" fill="#9aa7b5" />
    <rect x="124" y="238" width="120" height="22" rx="11" fill="#9aa7b5" />
    <rect x="124" y="278" width="156" height="22" rx="11" fill="#9aa7b5" />
    <rect x="288" y="300" width="172" height="116" rx="38" fill="#0d1117" />
    <path d="M322 416 L300 456 L350 416 Z" fill="#0d1117" />
    <circle cx="328" cy="358" r="15" fill="#ffffff" />
    <circle cx="374" cy="358" r="15" fill="#ffffff" />
    <circle cx="420" cy="358" r="15" fill="#ffffff" />
  </g>

  <text x="220" y="212" text-anchor="middle"
        font-family="'Segoe UI', Roboto, Helvetica, Arial, sans-serif"
        font-size="50" font-weight="800" fill="#ffffff">Markonator</text>
  <text x="220" y="244" text-anchor="middle"
        font-family="'Segoe UI', Roboto, Helvetica, Arial, sans-serif"
        font-size="17" font-weight="700" fill="#58a6ff" letter-spacing="2">MARKDOWN ANNOTATOR</text>
</svg>
